# xmcd
#
# Track frame offsets:
#	150
#	13507
#	33565
#	45750
#	66355
#	84010
#	97600
#	114937
#	132385
#	149947
#
# Disc length: 2190 seconds
#
# Revision: 4
# Processed by: cddbd v1.5.2PL0 Copyright (c) Steve Scherf et al.
# Submitted via: EasyCDDAExtractor 15.3.0.1
#
DISCID=78088c0a
DTITLE=Yuri - Isla Del Sol
DYEAR=1988
DGENRE=Latin
TTITLE0=Hola
TTITLE1=Imposible Amarte Como Yo
TTITLE2=Touche
TTITLE3=Veneno
TTITLE4=Isla Del Sol
TTITLE5=Hombres Al Borde De Un Ataque De Celos
TTITLE6=No Puedo Mas
TTITLE7=Miel Y Limon (On The Rocks)
TTITLE8=Vivir A Dos
TTITLE9=Entre Mujer Y Marido
EXTD=
EXTT0=
EXTT1=
EXTT2=
EXTT3=
EXTT4=
EXTT5=
EXTT6=
EXTT7=
EXTT8=
EXTT9=
PLAYORDER=
